<svg width="16" height="12" viewBox="0 0 16 12" fill="none" xmlns="http://www.w3.org/2000/svg">
<path d="M2.343 3.343C2.43676 3.24927 2.56392 3.19661 2.6965 3.19661C2.82908 3.19661 2.95624 3.24927 3.05 3.343L4.464 4.757C4.55508 4.8513 4.60548 4.9776 4.60434 5.1087C4.6032 5.2398 4.55061 5.36521 4.45791 5.45791C4.36521 5.55062 4.2398 5.6032 4.1087 5.60434C3.9776 5.60548 3.8513 5.55508 3.757 5.464L2.343 4.05C2.24926 3.95624 2.19661 3.82908 2.19661 3.6965C2.19661 3.56392 2.24926 3.43677 2.343 3.343ZM13.657 3.343C13.7507 3.43677 13.8034 3.56392 13.8034 3.6965C13.8034 3.82908 13.7507 3.95624 13.657 4.05L12.243 5.464C12.1969 5.51176 12.1417 5.54985 12.0807 5.57605C12.0197 5.60226 11.9541 5.61605 11.8877 5.61663C11.8213 5.6172 11.7555 5.60455 11.694 5.57941C11.6326 5.55427 11.5767 5.51715 11.5298 5.4702C11.4829 5.42325 11.4457 5.36743 11.4206 5.30598C11.3954 5.24453 11.3828 5.17869 11.3834 5.1123C11.384 5.04591 11.3977 4.9803 11.424 4.9193C11.4502 4.8583 11.4882 4.80313 11.536 4.757L12.95 3.343C13.0438 3.24927 13.1709 3.19661 13.3035 3.19661C13.4361 3.19661 13.5632 3.24927 13.657 3.343ZM8 6C8.52669 5.99984 9.04414 6.13834 9.50033 6.40158C9.95651 6.66482 10.3354 7.04352 10.5988 7.4996C10.8622 7.95569 11.0009 8.47308 11.0009 8.99977C11.001 9.52646 10.8623 10.0439 10.599 10.5H5.4C5.13661 10.0438 4.99799 9.5263 4.99808 8.99952C4.99816 8.47275 5.13695 7.95528 5.40048 7.49917C5.66401 7.04305 6.043 6.66437 6.49933 6.4012C6.95565 6.13804 7.47323 5.99966 8 6ZM11.71 10.5C11.9552 9.89285 12.0476 9.23479 11.979 8.58359C11.9105 7.9324 11.6832 7.30798 11.317 6.76517C10.9508 6.22235 10.4569 5.77774 9.87873 5.47036C9.30057 5.16298 8.65579 5.00223 8.001 5.00223C7.34621 5.00223 6.70143 5.16298 6.12327 5.47036C5.54511 5.77774 5.05125 6.22235 4.68505 6.76517C4.31885 7.30798 4.0915 7.9324 4.02297 8.58359C3.95444 9.23479 4.04682 9.89285 4.292 10.5H0.499001C0.366392 10.5 0.239215 10.5527 0.145447 10.6464C0.051679 10.7402 -0.000999451 10.8674 -0.000999451 11C-0.000999451 11.1326 0.051679 11.2598 0.145447 11.3536C0.239215 11.4473 0.366392 11.5 0.499001 11.5H15.499C15.6316 11.5 15.7588 11.4473 15.8526 11.3536C15.9463 11.2598 15.999 11.1326 15.999 11C15.999 10.8674 15.9463 10.7402 15.8526 10.6464C15.7588 10.5527 15.6316 10.5 15.499 10.5H11.709H11.71ZM5.49364e-07 9C5.49364e-07 8.86739 0.052679 8.74022 0.146447 8.64645C0.240215 8.55268 0.367392 8.5 0.500001 8.5H2.5C2.63261 8.5 2.75979 8.55268 2.85355 8.64645C2.94732 8.74022 3 8.86739 3 9C3 9.13261 2.94732 9.25979 2.85355 9.35356C2.75979 9.44732 2.63261 9.5 2.5 9.5H0.500001C0.367392 9.5 0.240215 9.44732 0.146447 9.35356C0.052679 9.25979 5.49364e-07 9.13261 5.49364e-07 9ZM13 9C13 8.86739 13.0527 8.74022 13.1464 8.64645C13.2402 8.55268 13.3674 8.5 13.5 8.5H15.5C15.6326 8.5 15.7598 8.55268 15.8536 8.64645C15.9473 8.74022 16 8.86739 16 9C16 9.13261 15.9473 9.25979 15.8536 9.35356C15.7598 9.44732 15.6326 9.5 15.5 9.5H13.5C13.3674 9.5 13.2402 9.44732 13.1464 9.35356C13.0527 9.25979 13 9.13261 13 9Z" fill="white"/>
<path d="M8.19226 3.96271C8.25301 3.9375 8.30819 3.90056 8.35463 3.854L9.85463 2.354C9.90112 2.30751 9.938 2.25232 9.96315 2.19158C9.98831 2.13084 10.0013 2.06574 10.0013 2C10.0013 1.93425 9.98831 1.86915 9.96315 1.80842C9.938 1.74768 9.90112 1.69249 9.85463 1.646C9.80814 1.59951 9.75295 1.56263 9.69221 1.53748C9.63148 1.51232 9.56637 1.49937 9.50063 1.49937C9.43489 1.49937 9.36979 1.51232 9.30905 1.53748C9.24831 1.56263 9.19312 1.59951 9.14663 1.646L8.50063 2.293L8.50063 0.499999C8.50063 0.367391 8.44795 0.240214 8.35418 0.146446C8.26042 0.0526774 8.13324 -9.53674e-07 8.00063 -9.53674e-07C7.86802 -9.53674e-07 7.74084 0.0526774 7.64708 0.146446C7.55331 0.240214 7.50063 0.367391 7.50063 0.499999L7.50063 2.293L6.85463 1.646C6.80814 1.59951 6.75295 1.56263 6.69221 1.53748C6.63147 1.51232 6.56637 1.49937 6.50063 1.49937C6.43489 1.49937 6.36979 1.51232 6.30905 1.53748C6.24831 1.56263 6.19312 1.59951 6.14663 1.646C6.10014 1.69249 6.06327 1.74768 6.03811 1.80842C6.01295 1.86915 6 1.93425 6 2C6 2.06574 6.01295 2.13084 6.03811 2.19158C6.06327 2.25232 6.10014 2.30751 6.14663 2.354L7.64663 3.854C7.69308 3.90056 7.74825 3.9375 7.809 3.96271C7.86974 3.98792 7.93486 4.00089 8.00063 4.00089C8.0664 4.00089 8.13152 3.98792 8.19226 3.96271Z" fill="white"/>
</svg>
